<svg width="212" height="29" viewBox="0 0 212 29" fill="none" xmlns="http://www.w3.org/2000/svg">
<mask id="mask0_5_19" style="mask-type:alpha" maskUnits="userSpaceOnUse" x="0" y="0" width="212" height="29">
<path d="M13.5554 28.4735C10.7343 28.4735 8.30775 27.8758 6.27564 26.6804C4.25548 25.4731 2.70151 23.7996 1.61374 21.6599C0.537912 19.5202 0 17.0578 0 14.2726C0 11.4515 0.543889 8.97715 1.63167 6.84941C2.7314 4.70972 4.29134 3.04219 6.3115 1.84683C8.33166 0.639518 10.7343 0.0358619 13.5195 0.0358619C15.9222 0.0358619 18.026 0.472167 19.831 1.34478C21.636 2.21739 23.0645 3.44264 24.1164 5.02051C25.1683 6.59838 25.748 8.45119 25.8556 10.5789H18.6476C18.4444 9.20427 17.9065 8.09856 17.0339 7.26181C16.1732 6.4131 15.0436 5.98875 13.645 5.98875C12.4616 5.98875 11.4276 6.3115 10.5431 6.95699C9.67046 7.59053 8.9891 8.51694 8.49901 9.7362C8.00891 10.9555 7.76386 12.4317 7.76386 14.165C7.76386 15.9222 8.00293 17.4164 8.48108 18.6476C8.97117 19.8788 9.6585 20.8172 10.5431 21.4627C11.4276 22.1082 12.4616 22.4309 13.645 22.4309C14.5176 22.4309 15.3006 22.2516 15.9939 21.893C16.6992 21.5344 17.2789 21.0144 17.7332 20.3331C18.1993 19.6398 18.5042 18.809 18.6476 17.8407H25.8556C25.7361 19.9446 25.1623 21.7974 24.1343 23.3992C23.1183 24.989 21.7137 26.2322 19.9207 27.1287C18.1276 28.0252 16.0059 28.4735 13.5554 28.4735Z" fill="black"/>
<path d="M38.5997 28.4555C36.8425 28.4555 35.2766 28.1507 33.9019 27.5411C32.5272 26.9195 31.4394 26.005 30.6386 24.7977C29.8496 23.5785 29.4552 22.0604 29.4552 20.2434C29.4552 18.7134 29.7361 17.4283 30.2979 16.3884C30.8597 15.3484 31.6247 14.5117 32.593 13.8781C33.5612 13.2446 34.6609 12.7664 35.8922 12.4437C37.1353 12.1209 38.4383 11.8938 39.801 11.7623C41.4028 11.595 42.6938 11.4396 43.674 11.2961C44.6542 11.1408 45.3654 10.9136 45.8077 10.6148C46.25 10.316 46.4711 9.87367 46.4711 9.28794V9.18036C46.4711 8.04477 46.1125 7.16618 45.3953 6.54459C44.69 5.92301 43.6859 5.61221 42.383 5.61221C41.0083 5.61221 39.9145 5.91703 39.1017 6.52666C38.2889 7.12434 37.7509 7.87742 37.488 8.78589L30.4234 8.21212C30.782 6.53862 31.4873 5.09223 32.5392 3.87297C33.5911 2.64174 34.9478 1.69741 36.6094 1.03996C38.2829 0.370562 40.2194 0.0358619 42.4188 0.0358619C43.9489 0.0358619 45.4132 0.215165 46.8118 0.573772C48.2223 0.932381 49.4714 1.48822 50.5592 2.2413C51.659 2.99438 52.5256 3.96262 53.1591 5.14602C53.7927 6.31748 54.1094 7.72202 54.1094 9.35966V27.9356H46.8656V24.1164H46.6504C46.2081 24.977 45.6164 25.7361 44.8753 26.3935C44.1342 27.039 43.2436 27.5471 42.2037 27.9176C41.1637 28.2762 39.9624 28.4555 38.5997 28.4555ZM40.7872 23.184C41.9108 23.184 42.9029 22.9629 43.7636 22.5206C44.6243 22.0663 45.2996 21.4567 45.7897 20.6917C46.2798 19.9266 46.5249 19.06 46.5249 18.0918V15.1691C46.2858 15.3245 45.9571 15.468 45.5387 15.5994C45.1323 15.719 44.6721 15.8325 44.1581 15.9401C43.6441 16.0357 43.1301 16.1254 42.6161 16.2091C42.1021 16.2808 41.6359 16.3465 41.2175 16.4063C40.321 16.5378 39.538 16.747 38.8686 17.0339C38.1992 17.3208 37.6792 17.7093 37.3087 18.1994C36.9381 18.6775 36.7528 19.2752 36.7528 19.9924C36.7528 21.0324 37.1294 21.8273 37.8824 22.3771C38.6475 22.915 39.6157 23.184 40.7872 23.184Z" fill="black"/>
<path d="M60.0354 27.9356V0.394469H67.3152V5.25361H67.6379C68.2117 3.63987 69.168 2.36681 70.5068 1.43443C71.8456 0.502051 73.4474 0.0358619 75.3121 0.0358619C77.2008 0.0358619 78.8086 0.508028 80.1354 1.45236C81.4623 2.38474 82.3468 3.65182 82.7891 5.25361H83.076C83.6378 3.67573 84.6539 2.41463 86.1242 1.47029C87.6064 0.514005 89.3576 0.0358619 91.3778 0.0358619C93.9478 0.0358619 96.0337 0.854683 97.6355 2.49233C99.2492 4.11801 100.056 6.42506 100.056 9.41346V27.9356H92.4357V10.9196C92.4357 9.38955 92.0292 8.242 91.2164 7.47697C90.4035 6.71194 89.3875 6.32943 88.1682 6.32943C86.7816 6.32943 85.6998 6.77171 84.9228 7.65628C84.1458 8.52889 83.7573 9.68241 83.7573 11.1168V27.9356H76.3521V10.7582C76.3521 9.40748 75.9636 8.33166 75.1866 7.53076C74.4216 6.72987 73.4115 6.32943 72.1564 6.32943C71.3077 6.32943 70.5426 6.54459 69.8613 6.97492C69.1919 7.3933 68.66 7.985 68.2655 8.75003C67.871 9.50311 67.6738 10.3877 67.6738 11.4037V27.9356H60.0354Z" fill="black"/>
<path d="M118.641 28.4735C115.808 28.4735 113.369 27.8997 111.325 26.7521C109.293 25.5926 107.727 23.955 106.628 21.8392C105.528 19.7115 104.978 17.1952 104.978 14.2905C104.978 11.4575 105.528 8.97117 106.628 6.83148C107.727 4.69179 109.275 3.02426 111.272 1.8289C113.28 0.633541 115.635 0.0358619 118.336 0.0358619C120.153 0.0358619 121.844 0.328725 123.41 0.914451C124.988 1.48822 126.363 2.35486 127.534 3.51436C128.718 4.67386 129.638 6.13219 130.296 7.88937C130.953 9.6346 131.282 11.6787 131.282 14.0216V16.1194H108.026V11.3858H124.092C124.092 10.2861 123.853 9.31185 123.375 8.46315C122.896 7.61444 122.233 6.95102 121.384 6.47287C120.548 5.98277 119.573 5.73773 118.462 5.73773C117.302 5.73773 116.274 6.00668 115.378 6.54459C114.493 7.07055 113.8 7.78179 113.298 8.67831C112.796 9.56288 112.539 10.549 112.527 11.6368V16.1374C112.527 17.5001 112.778 18.6775 113.28 19.6696C113.794 20.6618 114.517 21.4268 115.449 21.9647C116.382 22.5026 117.487 22.7716 118.766 22.7716C119.615 22.7716 120.392 22.6521 121.097 22.413C121.803 22.1739 122.406 21.8153 122.908 21.3372C123.41 20.859 123.793 20.2733 124.056 19.58L131.12 20.0462C130.762 21.7436 130.027 23.2258 128.915 24.4929C127.815 25.748 126.393 26.7282 124.648 27.4335C122.914 28.1268 120.912 28.4735 118.641 28.4735Z" fill="black"/>
<path d="M136.267 27.9356V0.394469H143.672V5.19981H143.959C144.461 3.49045 145.303 2.19946 146.487 1.32685C147.67 0.442283 149.033 0 150.575 0C150.957 0 151.37 0.0239069 151.812 0.0717207C152.254 0.119537 152.643 0.185281 152.978 0.268955V7.04664C152.619 6.93906 152.123 6.84343 151.489 6.75976C150.856 6.67608 150.276 6.63425 149.75 6.63425C148.627 6.63425 147.622 6.87929 146.738 7.36939C145.865 7.84754 145.172 8.51694 144.658 9.3776C144.156 10.2383 143.905 11.2304 143.905 12.354V27.9356H136.267Z" fill="black"/>
<path d="M168.088 28.4735C165.303 28.4735 162.895 27.8818 160.863 26.6984C158.842 25.503 157.282 23.8414 156.183 21.7137C155.083 19.574 154.533 17.0936 154.533 14.2726C154.533 11.4276 155.083 8.94129 156.183 6.81355C157.282 4.67386 158.842 3.01231 160.863 1.8289C162.895 0.633541 165.303 0.0358619 168.088 0.0358619C170.874 0.0358619 173.276 0.633541 175.296 1.8289C177.329 3.01231 178.895 4.67386 179.994 6.81355C181.094 8.94129 181.644 11.4276 181.644 14.2726C181.644 17.0936 181.094 19.574 179.994 21.7137C178.895 23.8414 177.329 25.503 175.296 26.6984C173.276 27.8818 170.874 28.4735 168.088 28.4735ZM168.124 22.5564C169.391 22.5564 170.449 22.1978 171.298 21.4806C172.147 20.7514 172.786 19.7593 173.217 18.5042C173.659 17.249 173.88 15.8206 173.88 14.2188C173.88 12.617 173.659 11.1886 173.217 9.93344C172.786 8.67831 172.147 7.68616 171.298 6.95699C170.449 6.22782 169.391 5.86324 168.124 5.86324C166.845 5.86324 165.769 6.22782 164.897 6.95699C164.036 7.68616 163.385 8.67831 162.942 9.93344C162.512 11.1886 162.297 12.617 162.297 14.2188C162.297 15.8206 162.512 17.249 162.942 18.5042C163.385 19.7593 164.036 20.7514 164.897 21.4806C165.769 22.1978 166.845 22.5564 168.124 22.5564Z" fill="black"/>
<path d="M194.249 12.0134V27.9356H186.611V0.394469H193.89V5.25361H194.213C194.823 3.65182 195.845 2.38474 197.279 1.45236C198.714 0.508028 200.453 0.0358619 202.497 0.0358619C204.409 0.0358619 206.077 0.454237 207.499 1.29099C208.922 2.12774 210.028 3.3231 210.817 4.87707C211.606 6.41908 212 8.25993 212 10.3996V27.9356H204.362V11.7623C204.374 10.0769 203.943 8.76199 203.071 7.81765C202.198 6.86136 200.997 6.38322 199.467 6.38322C198.439 6.38322 197.53 6.60436 196.741 7.04664C195.964 7.48893 195.355 8.13442 194.912 8.98313C194.482 9.81988 194.261 10.83 194.249 12.0134Z" fill="black"/>
</mask>
<g mask="url(#mask0_5_19)">
<path d="M145.595 -22.06C34.3162 -55.7315 -137.634 -1.05127 -137.634 -1.05127C19.1723 49.9837 351.992 113.029 428.823 -43.0688C428.823 -43.0688 256.873 11.6115 145.595 -22.06Z" fill="#CCDBFD"/>
<path d="M103.913 19.1257C53.0261 3.74149 -25.6046 28.7245 -25.6046 28.7245C46.101 52.042 198.296 80.8469 233.43 9.52701C233.43 9.52701 154.799 34.51 103.913 19.1257Z" fill="#D7E3FC"/>
<path d="M94.3138 -18.0477C33.5601 -32.0178 -60.3179 -9.3313 -60.3179 -9.3313C25.2921 11.8428 206.999 38 248.946 -26.7641C248.946 -26.7641 155.068 -4.07759 94.3138 -18.0477Z" fill="#ABC4FF"/>
</g>
</svg>
